<?xml version="1.0" encoding="UTF-8" standalone="no"?>
<svg id="svg2" xmlns:rdf="http://www.w3.org/1999/02/22-rdf-syntax-ns#" xmlns="http://www.w3.org/2000/svg" height="30px" width="30px" version="1.1" y="0px" x="0px" xmlns:cc="http://creativecommons.org/ns#" xmlns:dc="http://purl.org/dc/elements/1.1/" viewBox="0 0 30 30">
 <metadata id="metadata23">
  <rdf:RDF>
   <cc:Work rdf:about="">
    <dc:format>image/svg+xml</dc:format>
    <dc:type rdf:resource="http://purl.org/dc/dcmitype/StillImage"/>
    <dc:title/>
   </cc:Work>
  </rdf:RDF>
 </metadata>
 <path id="path4" fill-opacity="0.4" d="M15,0c-11.112,0-15,3.891-15,15,0,11.115,3.888,15,15,15,11.115,0,15-3.885,15-15,0-11.109-3.885-15-15-15z" stroke-opacity="0.4" fill="url(#SVGID_1_)"/>
 <defs id="defs8">
  <linearGradient id="SVGID_1_" y2="29.892" gradientUnits="userSpaceOnUse" x2="15" x1="15">
   <stop id="stop11" stop-color="#464646" offset="0"/>
   <stop id="stop13" stop-color="#454545" offset="0.0171"/>
   <stop id="stop15" stop-color="#2E2E2E" offset="0.3689"/>
   <stop id="stop17" stop-color="#212121" offset="0.7034"/>
   <stop id="stop19" stop-color="#1C1C1C" offset="1"/>
  </linearGradient>
 </defs>
 <g id="g3004" transform="translate(0.26423352,-0.22988506)">
  <path id="path109" fill="#FFF" d="M23.156,10.733c-0.16-2.6288-2.391-3.5861-5.238-3.936l0.12684-3.6344-2.2122-0.077023-0.12344,3.5386c-0.58156-0.020233-1.1764-0.029506-1.7674-0.038342l0.12471-3.562-2.211-0.077271-0.1277,3.6333c-0.47929-0.00695-0.94995-0.014481-1.4086-0.030178l0.000133-0.011401-3.0512-0.10757-0.081927,2.3627s1.6347,0.025914,1.6065,0.05504c0.89605,0.031558,1.1695,0.56195,1.2387,1.0138l-0.1444,4.1403c0.06181,0.0025,0.14239,0.0079,0.23329,0.02359-0.07372-0.0025-0.15257-0.0057-0.2337-0.0079l-0.20311,5.8001c-0.049176,0.28063-0.23066,0.72446-0.85672,0.7037,0.027481,0.02603-1.6081-0.05657-1.6081-0.05657l-0.5318,2.6266,2.8789,0.10043c0.53567,0.01946,1.0625,0.04701,1.5799,0.06827l-0.12742,3.6758,2.2098,0.07753,0.12693-3.6369c0.60636,0.03379,1.1934,0.05904,1.7667,0.07855l-0.12738,3.6201,2.2122,0.07701,0.12882-3.6692c3.7266-0.08352,6.3624-0.92959,6.8076-4.4108,0.35918-2.8032-0.9199-4.1042-3.0134-4.6849,1.3054-0.60831,2.1475-1.7311,2.0269-3.6548zm-3.3695,7.7515c-0.09473,2.7469-4.7872,2.2703-6.2865,2.2193l0.17062-4.8701c1.4997,0.05273,6.2161-0.21429,6.1159,2.6508zm-0.78893-6.907c-0.08796,2.4991-4.0003,2.0705-5.2492,2.027l0.15437-4.417c1.2488,0.043508,5.1856-0.21663,5.0948,2.39z"/>
 </g>
</svg>
